# Blender 4.0.2
# www.blender.org
mtllib base.mtl
o Cube
v -4.889609 -3.142897 2.637837
v -4.889609 -2.637837 3.142897
v -5.825811 -2.637837 2.637837
v -4.889609 2.637837 3.142897
v -4.889609 3.142897 2.637837
v -5.825811 2.637837 2.637837
v -4.889609 -3.142897 -2.637837
v -5.825811 -2.637837 -2.637837
v -4.889609 -2.637837 -3.142897
v -4.889609 3.142897 -2.637837
v -4.889609 2.637837 -3.142897
v -5.825811 2.637837 -2.637837
v 4.889609 -3.142897 2.637837
v 5.825811 -2.527782 2.527782
v 4.889609 -2.637837 3.142897
v 4.889609 3.142897 2.637837
v 4.889609 2.637837 3.142897
v 5.825811 2.527782 2.527782
v 4.889609 -3.142897 -2.637837
v 4.889609 -2.637837 -3.142897
v 5.825811 -2.527782 -2.527782
v 4.889609 3.142897 -2.637837
v 5.825811 2.527782 -2.527782
v 4.889609 2.637837 -3.142897
v 5.825811 2.637837 -2.637837
v 5.825811 -2.637837 -2.637837
v 5.825811 -2.637837 2.637837
v 5.825811 2.637837 2.637837
v 2.050952 -3.028327 2.202212
v 2.050952 -2.752407 3.028327
v 4.349132 -2.752407 3.028327
v 4.349132 -3.028327 2.202212
v 2.050952 -4.139477 2.196899
v 2.050952 -4.139477 3.033640
v 4.349132 -4.139477 3.033640
v 4.349132 -4.139477 2.196899
v 4.889609 -3.142897 2.637837
v 4.889609 -2.637837 3.142897
v 5.825811 -2.637837 2.637837
v 4.889609 2.637837 3.142897
v 4.889609 3.142897 2.637837
v 5.825811 2.637837 2.637837
v 4.889609 -3.142897 -2.637837
v 5.825811 -2.637837 -2.637837
v 4.889609 -2.637837 -3.142897
v 4.889609 3.142897 -2.637837
v 4.889609 2.637837 -3.142897
v 5.825811 2.637837 -2.637837
v -4.889609 -3.142897 2.637837
v -5.825811 -2.527782 2.527782
v -4.889609 -2.637837 3.142897
v -4.889609 3.142897 2.637837
v -4.889609 2.637837 3.142897
v -5.825811 2.527782 2.527782
v -4.889609 -3.142897 -2.637837
v -4.889609 -2.637837 -3.142897
v -5.825811 -2.527782 -2.527782
v -4.889609 3.142897 -2.637837
v -5.825811 2.527782 -2.527782
v -4.889609 2.637837 -3.142897
v -5.825811 2.637837 -2.637837
v -5.825811 -2.637837 -2.637837
v -5.825811 -2.637837 2.637837
v -5.825811 2.637837 2.637837
v -2.050952 -3.028327 2.202212
v -2.050952 -2.752407 3.028327
v -4.349132 -2.752407 3.028327
v -4.349132 -3.028327 2.202212
v -2.050952 -4.139477 2.196899
v -2.050952 -4.139477 3.033640
v -4.349132 -4.139477 3.033640
v -4.349132 -4.139477 2.196899
v -4.889609 -3.142897 -2.637837
v -4.889609 -2.637837 -3.142897
v -5.825811 -2.637837 -2.637837
v -4.889609 2.637837 -3.142897
v -4.889609 3.142897 -2.637837
v -5.825811 2.637837 -2.637837
v -4.889609 -3.142897 2.637837
v -5.825811 -2.637837 2.637837
v -4.889609 -2.637837 3.142897
v -4.889609 3.142897 2.637837
v -4.889609 2.637837 3.142897
v -5.825811 2.637837 2.637837
v 4.889609 -3.142897 -2.637837
v 5.825811 -2.235154 -2.527782
v 4.889609 -2.637837 -3.142897
v 4.889609 3.142897 -2.637837
v 4.889609 2.637837 -3.142897
v 5.825811 2.527782 -2.527782
v 4.889609 -3.142897 2.637837
v 4.889609 -2.637837 3.142897
v 5.825811 -2.235154 2.527782
v 4.889609 3.142897 2.637837
v 5.825811 2.527782 2.527782
v 4.889609 2.637837 3.142897
v 5.825811 2.637837 2.637837
v 5.825811 -2.345209 2.637837
v 5.825811 -2.345209 -2.637837
v 5.825811 2.637837 -2.637837
v 2.050952 -3.028327 -2.202212
v 2.050952 -2.752407 -3.028327
v 4.349132 -2.752407 -3.028327
v 4.349132 -3.028327 -2.202212
v 2.050952 -4.139477 -2.196899
v 2.050952 -4.139477 -3.033640
v 4.349132 -4.139477 -3.033640
v 4.349132 -4.139477 -2.196899
v 4.889609 -3.142897 -2.637837
v 4.889609 -2.345209 -3.142897
v 5.825811 -2.637837 -2.637837
v 4.889609 2.637837 -3.142897
v 4.889609 3.142897 -2.637837
v 5.825811 2.637837 -2.637837
v 4.996983 -2.898906 2.564946
v 5.744329 -2.300930 2.639095
v 4.863718 -2.633478 3.214530
v 4.889609 3.142897 2.637837
v 4.889609 2.637837 3.142897
v 5.825811 2.637837 2.637837
v -4.889609 -3.142897 -2.637837
v -5.825811 -2.235154 -2.527782
v -4.889609 -2.345209 -3.142897
v -4.889609 3.142897 -2.637837
v -4.889609 2.637837 -3.142897
v -5.825811 2.527782 -2.527782
v -4.889609 -2.850269 2.637837
v -4.889609 -2.345209 3.142897
v -5.825811 -2.235154 2.527782
v -4.889609 3.142897 2.637837
v -5.825811 2.527782 2.527782
v -4.889609 2.637837 3.142897
v -5.825811 2.637837 2.637837
v -5.825811 -2.345209 2.637837
v -5.825811 -2.345209 -2.637837
v -5.825811 2.637837 -2.637837
v -2.050952 -3.028327 -2.202212
v -2.050952 -2.459779 -3.028327
v -4.349132 -2.459779 -3.028327
v -4.349132 -3.028327 -2.202212
v -2.050952 -4.139477 -2.196899
v -2.050952 -4.139477 -3.033640
v -4.349132 -4.139477 -3.033640
v -4.349132 -4.139477 -2.196899
v 4.889609 3.142897 -2.637837
v 4.889609 3.142897 2.637837
v -4.889609 3.142897 2.637837
v -4.889609 3.142897 -2.637837
vn -0.0000 -0.0000 1.0000
vn -0.0000 1.0000 -0.0000
vn -1.0000 -0.0000 -0.0000
vn -0.0000 -0.0000 -1.0000
vn -0.3564 -0.6607 0.6607
vn -0.3564 0.6607 0.6607
vn -0.3564 -0.6607 -0.6607
vn -0.3564 0.6607 -0.6607
vn 0.3564 -0.6607 0.6607
vn 0.3564 0.6607 0.6607
vn 0.3564 -0.6607 -0.6607
vn 0.3564 0.6607 -0.6607
vn -0.4748 -0.8801 -0.0000
vn -0.4748 -0.0000 0.8801
vn -0.4748 0.8801 -0.0000
vn -0.4748 -0.0000 -0.8801
vn -0.0000 -0.7071 -0.7071
vn -0.0000 0.7071 -0.7071
vn 0.4748 -0.0000 -0.8801
vn 0.4748 -0.8801 -0.0000
vn 0.4748 0.8801 -0.0000
vn 0.4748 -0.0000 0.8801
vn -0.0000 0.9671 0.2544
vn -0.0000 0.7071 0.7071
vn -0.0000 -1.0000 -0.0000
vn 1.0000 -0.0000 -0.0000
vn -0.0000 0.0038 1.0000
vn 0.0201 -0.8623 0.5059
vn -0.2494 -0.8353 0.4900
vn -0.0000 -0.7071 0.7071
vn -0.0000 0.0048 -1.0000
vn -0.0000 0.9485 -0.3168
vn -0.0201 -0.8623 0.5059
vn 0.2494 -0.8353 0.4900
vn 0.5161 -0.6057 -0.6057
vn 0.5161 -0.6057 0.6057
vn -0.0000 0.9671 -0.2544
vn -0.0000 0.0038 -1.0000
vn 0.0201 -0.8623 -0.5059
vn -0.2494 -0.8353 -0.4900
vn -0.0000 0.0048 1.0000
vn -0.0000 0.9485 0.3168
vn -0.0036 0.0070 1.0000
vn 0.2773 -0.5140 -0.8118
vn 0.5445 -0.7314 0.4106
vn -0.4147 -0.4868 -0.7688
vn 0.5461 -0.8365 0.0450
vn 0.5111 0.0008 0.8595
vn -0.0142 -0.8325 0.5539
vn -0.5710 -0.8207 0.0228
vn -0.0023 -0.9987 0.0512
vn -0.0000 0.0032 -1.0000
vn -0.0284 -0.6976 -0.7159
vn 0.3425 -0.6556 -0.6729
vn -0.0000 0.8238 0.5669
vn 0.0016 0.9998 0.0173
vt 0.395087 0.770087
vt 0.604913 0.770087
vt 0.604913 0.979913
vt 0.395087 0.979913
vt 0.645087 0.520087
vt 0.854913 0.520087
vt 0.854913 0.729913
vt 0.645087 0.729913
vt 0.395087 0.020087
vt 0.604913 0.020087
vt 0.604913 0.229913
vt 0.395087 0.229913
vt 0.395087 0.270087
vt 0.604913 0.270087
vt 0.604913 0.479913
vt 0.395087 0.479913
vt 0.145087 0.729913
vt 0.145087 0.750000
vt 0.125000 0.729913
vt 0.604913 0.000000
vt 0.625000 0.020087
vt 0.145087 0.520087
vt 0.125000 0.520087
vt 0.145087 0.500000
vt 0.625000 0.229913
vt 0.604913 0.250000
vt 0.354913 0.729913
vt 0.375000 0.729913
vt 0.354913 0.750000
vt 0.625000 0.770087
vt 0.604913 0.750000
vt 0.354913 0.520087
vt 0.354913 0.500000
vt 0.375000 0.520087
vt 0.625000 0.479913
vt 0.604913 0.500000
vt 0.395087 0.000000
vt 0.625000 0.270087
vt 0.604913 0.520087
vt 0.395087 0.520087
vt 0.395087 0.729913
vt 0.604913 0.729913
vt 0.625000 0.979913
vt 0.600535 0.524464
vt 0.399464 0.524464
vt 0.399464 0.725536
vt 0.600535 0.725536
vt 0.000000 0.000000
s 0
usemtl Material.001
f 15/1/1 17/2/1 4/3/1 2/4/1
f 22/5/2 10/6/2 5/7/2 16/8/2
f 3/9/3 6/10/3 12/11/3 8/12/3
f 9/13/4 11/14/4 24/15/4 20/16/4
f 1/17/5 2/18/5 3/19/5
f 4/20/6 5/21/6 6/10/6
f 7/22/7 8/23/7 9/24/7
f 10/25/8 11/26/8 12/11/8
f 13/27/9 27/28/9 15/29/9
f 16/30/10 17/2/10 28/31/10
f 19/32/11 20/33/11 26/34/11
f 22/35/12 25/36/12 24/15/12
f 7/22/13 1/17/13 3/19/13 8/23/13
f 2/37/14 4/20/14 6/10/14 3/9/14
f 5/21/15 10/25/15 12/11/15 6/10/15
f 11/14/16 9/13/16 8/12/16 12/11/16
f 19/32/17 7/22/17 9/24/17 20/33/17
f 10/38/18 22/35/18 24/15/18 11/14/18
f 25/39/19 26/40/19 20/16/19 24/15/19
f 13/27/20 19/32/20 26/40/20 27/41/20
f 22/5/21 16/8/21 28/42/21 25/39/21
f 17/2/22 15/1/22 27/41/22 28/42/22
f 1/17/23 13/27/23 32/27/23 29/17/23
f 16/30/24 5/43/24 4/3/24 17/2/24
f 7/22/25 19/32/25 13/27/25 1/17/25
f 23/44/26 21/45/26 26/40/26 25/39/26
f 21/45/26 14/46/26 27/41/26 26/40/26
f 18/47/26 23/44/26 25/39/26 28/42/26
f 14/46/26 18/47/26 28/42/26 27/41/26
f 31/1/27 30/4/27 34/4/27 35/1/27
f 2/18/28 1/17/28 29/17/28 30/18/28
f 13/27/29 15/29/29 31/29/29 32/27/29
f 15/1/30 2/4/30 30/4/30 31/1/30
f 33/17/25 36/27/25 35/29/25 34/18/25
f 32/27/26 31/29/26 35/29/26 36/27/26
f 29/17/31 32/27/31 36/27/31 33/17/31
f 30/18/3 29/17/3 33/17/3 34/18/3
f 32/48/32 29/48/32 30/48/32 31/48/32
f 51/1/1 38/4/1 40/3/1 53/2/1
f 58/5/2 52/8/2 41/7/2 46/6/2
f 45/13/4 56/16/4 60/15/4 47/14/4
f 37/17/9 39/19/9 38/18/9
f 40/20/10 42/10/10 41/21/10
f 43/22/11 45/24/11 44/23/11
f 46/25/12 48/11/12 47/26/12
f 49/27/5 51/29/5 63/28/5
f 52/30/6 64/31/6 53/2/6
f 55/32/7 62/34/7 56/33/7
f 58/35/8 60/15/8 61/36/8
f 43/22/20 44/23/20 39/19/20 37/17/20
f 38/37/22 39/9/22 42/10/22 40/20/22
f 41/21/21 42/10/21 48/11/21 46/25/21
f 47/14/19 48/11/19 44/12/19 45/13/19
f 55/32/17 56/33/17 45/24/17 43/22/17
f 46/38/18 47/14/18 60/15/18 58/35/18
f 61/39/16 60/15/16 56/16/16 62/40/16
f 49/27/13 63/41/13 62/40/13 55/32/13
f 58/5/15 61/39/15 64/42/15 52/8/15
f 53/2/14 64/42/14 63/41/14 51/1/14
f 37/17/23 65/17/23 68/27/23 49/27/23
f 52/30/24 53/2/24 40/3/24 41/43/24
f 43/22/25 37/17/25 49/27/25 55/32/25
f 59/44/3 61/39/3 62/40/3 57/45/3
f 57/45/3 62/40/3 63/41/3 50/46/3
f 54/47/3 64/42/3 61/39/3 59/44/3
f 50/46/3 63/41/3 64/42/3 54/47/3
f 67/1/27 71/1/27 70/4/27 66/4/27
f 38/18/33 66/18/33 65/17/33 37/17/33
f 49/27/34 68/27/34 67/29/34 51/29/34
f 51/1/30 67/1/30 66/4/30 38/4/30
f 69/17/25 70/18/25 71/29/25 72/27/25
f 68/27/3 72/27/3 71/29/3 67/29/3
f 65/17/31 69/17/31 72/27/31 68/27/31
f 66/18/26 70/18/26 69/17/26 65/17/26
f 68/48/32 67/48/32 66/48/32 65/48/32
f 87/1/4 74/4/4 76/3/4 89/2/4
f 94/5/2 88/8/2 77/7/2 82/6/2
f 75/9/3 80/12/3 84/11/3 78/10/3
f 81/13/1 92/16/1 96/15/1 83/14/1
f 73/17/7 75/19/7 74/18/7
f 76/20/8 78/10/8 77/21/8
f 79/22/5 81/24/5 80/23/5
f 82/25/6 84/11/6 83/26/6
f 85/27/35 87/29/35 99/28/35
f 88/30/12 100/31/12 89/2/12
f 91/32/36 98/34/36 92/33/36
f 94/35/10 96/15/10 97/36/10
f 79/22/13 80/23/13 75/19/13 73/17/13
f 74/37/16 75/9/16 78/10/16 76/20/16
f 77/21/15 78/10/15 84/11/15 82/25/15
f 83/14/14 84/11/14 80/12/14 81/13/14
f 91/32/30 92/33/30 81/24/30 79/22/30
f 82/38/24 83/14/24 96/15/24 94/35/24
f 97/39/22 96/15/22 92/16/22 98/40/22
f 27/41/26 26/40/26 21/45/26 99/41/26 86/46/26 93/45/26 98/40/26 14/46/26
f 94/5/21 97/39/21 100/42/21 88/8/21
f 89/2/19 100/42/19 99/41/19 87/1/19
f 73/17/37 101/17/37 104/27/37 85/27/37
f 88/30/18 89/2/18 76/3/18 77/43/18
f 79/22/25 73/17/25 85/27/25 91/32/25
f 95/44/26 97/39/26 98/40/26 93/45/26
f 93/45/26 98/40/26 99/41/26 86/46/26
f 90/47/26 100/42/26 97/39/26 95/44/26
f 86/46/26 99/41/26 100/42/26 90/47/26
f 103/1/38 107/1/38 106/4/38 102/4/38
f 74/18/39 102/18/39 101/17/39 73/17/39
f 85/27/40 104/27/40 103/29/40 87/29/40
f 87/1/17 103/1/17 102/4/17 74/4/17
f 105/17/25 106/18/25 107/29/25 108/27/25
f 104/27/26 108/27/26 107/29/26 103/29/26
f 101/17/41 105/17/41 108/27/41 104/27/41
f 102/18/3 106/18/3 105/17/3 101/17/3
f 104/48/42 103/48/42 102/48/42 101/48/42
f 123/1/4 125/2/4 112/3/4 110/4/4
f 118/25/2 113/21/2 145/21/2 146/25/2
f 117/13/43 119/14/43 132/15/43 128/16/43
f 109/17/44 110/18/44 111/19/44
f 112/20/12 113/21/12 114/10/12
f 115/22/45 116/23/45 117/24/45
f 118/25/10 119/26/10 120/11/10
f 121/27/46 135/28/46 123/29/46
f 124/30/8 125/2/8 136/31/8
f 127/32/5 128/33/5 134/34/5
f 130/35/6 133/36/6 132/15/6
f 115/22/47 109/17/47 111/19/47 116/23/47
f 110/37/19 112/20/19 114/10/19 111/9/19
f 113/21/21 118/25/21 120/11/21 114/10/21
f 119/14/48 117/13/48 116/12/48 120/11/48
f 127/32/49 115/22/49 117/24/49 128/33/49
f 118/38/24 130/35/24 132/15/24 119/14/24
f 133/39/14 134/40/14 128/16/14 132/15/14
f 121/27/50 127/32/50 134/40/50 135/41/50
f 130/5/15 124/8/15 136/42/15 133/39/15
f 125/2/16 123/1/16 135/41/16 136/42/16
f 109/17/37 121/27/37 140/27/37 137/17/37
f 124/30/18 113/43/18 112/3/18 125/2/18
f 115/22/51 127/32/51 121/27/51 109/17/51
f 131/44/3 129/45/3 134/40/3 133/39/3
f 129/45/3 122/46/3 135/41/3 134/40/3
f 126/47/3 131/44/3 133/39/3 136/42/3
f 122/46/3 126/47/3 136/42/3 135/41/3
f 139/1/52 138/4/52 142/4/52 143/1/52
f 110/18/53 109/17/53 137/17/53 138/18/53
f 121/27/54 123/29/54 139/29/54 140/27/54
f 123/1/17 110/4/17 138/4/17 139/1/17
f 141/17/25 144/27/25 143/29/25 142/18/25
f 140/27/3 139/29/3 143/29/3 144/27/3
f 137/17/41 140/27/41 144/27/41 141/17/41
f 138/18/26 137/17/26 141/17/26 142/18/26
f 140/48/55 137/48/55 138/48/55 139/48/55
f 98/40/56 93/45/56 86/46/56 99/41/56 110/18/56 138/18/56 139/1/56 123/29/56 135/28/56 122/46/56 129/45/56 134/40/56 127/32/56 128/33/56 117/13/56 115/22/56
f 147/5/2 146/6/2 145/7/2 148/8/2
f 113/43/2 124/30/2 148/30/2 145/43/2
f 124/8/2 130/5/2 147/5/2 148/8/2
f 130/35/2 118/38/2 146/38/2 147/35/2
