# Blender 4.0.2
# www.blender.org
mtllib map_proto.mtl
o Plane-col
v -9.659923 0.096304 9.642367
v 9.628037 0.749457 9.060458
v -9.329132 0.654531 -9.452940
v 9.770639 0.661991 -9.203544
v -9.063871 1.142575 -7.794206
v -8.989373 1.280836 -6.261938
v -9.215412 0.870321 -4.928391
v -9.429415 0.494268 -3.593467
v -9.544342 0.338173 -2.210130
v -9.611362 0.348751 -0.827348
v -9.649240 0.381317 0.588499
v -9.642323 0.264733 2.129096
v -9.630793 0.170994 3.665011
v -9.627625 0.185765 5.141778
v -9.623240 0.368965 6.536126
v -9.638149 0.298799 8.056334
v -8.161279 0.130238 9.627456
v -6.666174 0.107457 9.641609
v -5.172959 0.096164 9.651855
v -3.680404 0.096348 9.656754
v -2.182462 0.111061 9.656794
v -0.669446 0.165657 9.644973
v 0.846300 0.248459 9.614755
v 2.310633 0.292174 9.553252
v 3.746120 0.412305 9.401319
v 5.174683 0.801494 9.042203
v 6.595189 1.412672 8.508899
v 8.082054 1.385472 8.524472
v 9.604835 1.177093 7.207835
v 9.648664 1.069518 5.805129
v 9.736404 0.705861 4.616769
v 9.844214 0.582581 3.213705
v 9.986036 0.709101 1.590468
v 10.088087 0.871315 0.003246
v 10.035357 0.838705 -1.236914
v 9.932537 0.798102 -2.301921
v 9.881857 0.936476 -3.378300
v 9.873287 1.177343 -4.513160
v 9.860634 1.251231 -5.850439
v 9.819407 1.012129 -7.471044
v 8.323421 0.992121 -8.956635
v 6.859824 1.191193 -8.809132
v 5.354984 1.071166 -8.904460
v 3.822036 0.774459 -9.137062
v 2.281312 0.534963 -9.333156
v 0.739901 0.421976 -9.442121
v -0.758854 0.374056 -9.499108
v -2.180387 0.349413 -9.534177
v -3.556055 0.430610 -9.520792
v -4.871340 0.686306 -9.437748
v -6.160642 1.024039 -9.321429
v -7.642444 1.023386 -9.322614
v -8.119955 0.512621 7.954240
v -8.087031 0.651109 6.401770
v -8.090144 0.290978 5.095599
v -8.097734 0.277280 3.620950
v -8.137337 0.498181 2.008640
v -8.197599 0.903182 0.280800
v -8.103796 0.636918 -0.953677
v -7.994400 0.492694 -2.213789
v -7.824477 0.712693 -3.536546
v -7.414887 1.445649 -4.734080
v -6.805515 2.563480 -5.812402
v -7.014543 2.180190 -7.428809
v -6.631696 0.264744 8.084708
v -6.579416 0.460744 6.525156
v -6.520021 0.495106 5.029530
v -6.520773 0.402579 3.591044
v -6.549420 0.532913 2.062815
v -6.558097 0.772626 0.484385
v -6.491427 0.674393 -0.855626
v -6.420331 0.595219 -2.183306
v -6.291613 0.776088 -3.526670
v -5.933412 1.434299 -4.745075
v -5.378104 2.467046 -5.849054
v -5.563931 2.131141 -7.446198
v -5.142063 0.257565 8.109704
v -5.127861 1.286857 6.320485
v -5.067492 1.828459 4.680095
v -4.950998 0.577448 3.582807
v -4.919022 0.560283 2.180403
v -4.839310 0.725243 0.734288
v -4.780404 0.801780 -0.699458
v -4.795736 0.750983 -2.135641
v -4.808352 0.745481 -3.556167
v -4.712114 0.963084 -4.920159
v -4.561741 1.279526 -6.269619
v -4.633072 1.152640 -7.789509
v -3.651806 0.225484 8.132096
v -3.637904 0.803980 6.489628
v -3.568687 1.083255 4.943897
v -3.442596 0.578452 3.655365
v -3.305028 0.725443 2.256878
v -3.106550 1.113897 0.846671
v -2.997241 1.349363 -0.588597
v -3.103660 1.124527 -2.077632
v -3.291911 0.818203 -3.564343
v -3.404182 0.717613 -5.013925
v -3.452849 0.728911 -6.458241
v -3.494137 0.633840 -7.963972
v -2.146222 0.193717 8.152934
v -2.108214 0.310134 6.644464
v -2.054647 0.399612 5.160884
v -1.950762 0.516161 3.718234
v -1.759954 0.892929 2.303083
v -1.552560 1.730664 0.943153
v -1.541493 2.445259 -0.429336
v -1.498449 1.679087 -1.999675
v -1.782066 0.964622 -3.540049
v -2.041548 0.726730 -5.002366
v -2.246340 0.721223 -6.432818
v -2.242018 0.565313 -7.963030
v -0.590542 0.308803 8.140825
v -0.556105 0.369943 6.650126
v -0.557633 0.358647 5.180031
v -0.486417 0.480621 3.725045
v -0.332375 0.864965 2.300482
v -0.232123 1.936585 0.973882
v -0.458430 3.383462 -0.286980
v -0.125252 1.814301 -1.969592
v -0.349744 0.976909 -3.513279
v -0.652670 0.796070 -4.943324
v -1.088482 1.022757 -6.264991
v -0.980343 0.745303 -7.851361
v 1.028277 0.577255 8.090888
v 1.044305 0.602065 6.603721
v 0.931756 0.391387 5.150394
v 0.955530 0.426997 3.693364
v 1.049876 0.651157 2.249477
v 1.141413 1.089311 0.840373
v 1.187045 1.452506 -0.563039
v 1.172155 1.144980 -2.033413
v 1.049729 0.856255 -3.479273
v 0.867597 0.778094 -4.889914
v 0.634358 0.850037 -6.285912
v 0.622331 0.703210 -7.821643
v 2.416245 0.511241 8.021167
v 2.421760 0.512269 6.534875
v 2.375411 0.390384 5.081702
v 2.398553 0.394280 3.624970
v 2.459983 0.501391 2.166735
v 2.520365 0.662453 0.727632
v 2.547713 0.785380 -0.677060
v 2.533083 0.820226 -2.047012
v 2.484252 0.854414 -3.385014
v 2.417279 0.917927 -4.725980
v 2.339337 0.923002 -6.146351
v 2.288069 0.777043 -7.699769
v 3.769685 0.578875 7.809892
v 3.787792 0.571858 6.334048
v 3.816422 0.472755 4.930870
v 3.867902 0.442131 3.497260
v 3.933968 0.508060 2.021752
v 3.986522 0.615768 0.569836
v 3.999232 0.715638 -0.786963
v 3.985700 0.848628 -2.039205
v 3.976504 1.097324 -3.203228
v 3.975965 1.414751 -4.344763
v 3.949826 1.509021 -5.683418
v 3.883598 1.207639 -7.349415
v 5.152339 1.263368 7.170494
v 5.194321 1.147726 5.781938
v 5.281008 0.752997 4.633344
v 5.379695 0.600123 3.282548
v 5.497662 0.685762 1.743937
v 5.585763 0.837936 0.226396
v 5.572824 0.912629 -1.041096
v 5.522715 1.059656 -2.100008
v 5.520937 1.509450 -3.002256
v 5.570041 2.239967 -3.773776
v 5.575010 2.543075 -4.916396
v 5.468057 1.883718 -6.832461
v 6.489024 2.808349 5.830812
v 6.590221 2.280282 4.781406
v 6.765261 1.132304 4.262565
v 6.922714 0.797586 3.037326
v 7.141125 0.986814 1.339721
v 7.329125 1.295902 -0.379183
v 7.245236 1.252340 -1.480312
v 7.091877 1.250090 -2.272430
v 7.054653 1.727062 -2.972924
v 7.114323 2.670442 -3.501555
v 7.131444 3.108525 -4.503253
v 6.997239 2.211274 -6.583552
v 7.982952 2.738926 5.880009
v 8.084812 2.230631 4.809196
v 8.257038 1.119205 4.253367
v 8.421853 0.808698 2.995014
v 8.667879 1.046557 1.226750
v 8.885383 1.401225 -0.568799
v 8.762243 1.273203 -1.609934
v 8.564772 1.148155 -2.366518
v 8.495529 1.441890 -3.160451
v 8.513803 2.042773 -3.947112
v 8.510489 2.285742 -5.107415
v 8.420899 1.713776 -6.951710
vn 0.2612 0.9251 -0.2755
vn -0.2913 0.8939 -0.3406
vn 0.0113 0.8556 -0.5176
vn 0.3843 0.8056 -0.4508
vn 0.2723 0.9365 -0.2211
vn 0.0558 0.9896 -0.1326
vn -0.0647 0.9807 -0.1846
vn 0.0036 0.9807 -0.1954
vn -0.0459 0.9860 -0.1601
vn -0.1739 0.9668 -0.1874
vn -0.2207 0.9311 -0.2905
vn -0.0916 0.9179 -0.3861
vn 0.1513 0.9111 -0.3835
vn -0.0739 0.9818 0.1748
vn -0.1551 0.9858 0.0645
vn -0.1339 0.9716 -0.1951
vn -0.0690 0.9976 -0.0094
vn -0.1052 0.9894 0.1006
vn -0.2229 0.9619 0.1581
vn -0.2786 0.9527 -0.1213
vn -0.1458 0.9870 -0.0675
vn -0.1186 0.9851 0.1244
vn -0.2372 0.9100 0.3401
vn -0.4412 0.8192 0.3663
vn -0.4625 0.8805 -0.1042
vn 0.0811 0.9828 0.1661
vn 0.1348 0.9848 0.1095
vn -0.0023 0.9933 -0.1155
vn -0.1051 0.9938 -0.0359
vn -0.0510 0.9924 0.1121
vn 0.0139 0.9815 0.1911
vn 0.0411 0.9896 -0.1376
vn -0.0401 0.9952 -0.0887
vn -0.0546 0.9883 0.1425
vn -0.0148 0.8685 0.4954
vn 0.0377 0.7016 0.7115
vn 0.0450 0.9737 -0.2234
vn 0.0050 0.9947 0.1024
vn -0.2345 0.9144 0.3299
vn -0.5763 0.8074 0.1263
vn -0.4427 0.7838 -0.4355
vn -0.0643 0.9972 0.0384
vn -0.0086 0.9912 0.1324
vn -0.0223 0.9997 -0.0088
vn -0.0815 0.9955 -0.0485
vn -0.0405 0.9973 0.0616
vn 0.1964 0.9175 0.3457
vn 0.6287 0.5907 0.5057
vn 0.7406 0.6531 -0.1581
vn 0.0098 0.9955 0.0945
vn 0.1280 0.8977 0.4216
vn 0.3373 0.9082 0.2477
vn 0.2578 0.7905 -0.5556
vn -0.0551 0.9976 0.0429
vn -0.1702 0.9704 0.1714
vn -0.2616 0.9611 0.0892
vn -0.2517 0.9645 -0.0804
vn -0.1357 0.9861 -0.0964
vn 0.0625 0.9972 0.0411
vn 0.3233 0.9384 0.1219
vn 0.4173 0.9050 -0.0819
vn 0.0052 0.9975 0.0699
vn 0.1545 0.9643 0.2152
vn 0.3443 0.9302 0.1272
vn 0.2494 0.9615 -0.1157
vn -0.0405 0.9831 0.1783
vn -0.2443 0.8995 0.3623
vn -0.4942 0.8297 0.2596
vn -0.4410 0.8565 -0.2683
vn -0.2016 0.9372 -0.2846
vn -0.0524 0.9927 -0.1087
vn -0.0006 1.0000 0.0021
vn 0.0318 0.9961 -0.0827
vn -0.0545 0.9959 0.0727
vn -0.0560 0.9968 0.0577
vn -0.0064 0.9996 0.0263
vn 0.0250 0.9962 0.0835
vn 0.0208 0.9651 0.2612
vn -0.0588 0.8169 0.5738
vn -0.3771 0.7005 0.6058
vn -0.2917 0.7607 -0.5799
vn -0.0381 0.8951 -0.4442
vn -0.0244 0.9900 -0.1386
vn -0.1531 0.9815 0.1145
vn -0.1774 0.9739 -0.1418
vn -0.1066 0.9838 0.1442
vn -0.1528 0.9879 0.0259
vn -0.0869 0.9936 -0.0721
vn 0.0082 0.9985 0.0543
vn 0.0983 0.9717 0.2147
vn 0.3441 0.8116 0.4720
vn 0.6502 0.6482 0.3963
vn 0.5916 0.7176 -0.3674
vn 0.2578 0.8939 -0.3666
vn 0.0502 0.9938 -0.0992
vn 0.0575 0.9938 0.0951
vn 0.0642 0.9891 -0.1324
vn 0.0159 0.9839 0.1779
vn 0.0567 0.9983 0.0091
vn 0.0264 0.9930 -0.1151
vn 0.0123 0.9998 0.0138
vn 0.0696 0.9907 0.1168
vn 0.2121 0.9540 0.2120
vn 0.3775 0.9107 0.1675
vn 0.3370 0.9368 -0.0934
vn 0.1183 0.9882 -0.0976
vn -0.0461 0.9989 -0.0011
vn -0.0684 0.9970 0.0348
vn -0.0361 0.9950 -0.0936
vn -0.0511 0.9914 0.1203
vn -0.0471 0.9989 -0.0024
vn -0.0599 0.9953 -0.0766
vn -0.0457 0.9989 -0.0104
vn -0.0131 0.9982 0.0583
vn 0.0232 0.9954 0.0934
vn 0.0472 0.9956 0.0810
vn 0.0164 0.9978 0.0637
vn -0.0984 0.9886 0.1141
vn -0.2595 0.9535 0.1534
vn -0.3340 0.9414 0.0465
vn -0.2716 0.9546 -0.1227
vn -0.2982 0.9392 0.1703
vn -0.4281 0.9025 -0.0476
vn -0.3325 0.9230 -0.1937
vn -0.1576 0.9848 -0.0734
vn -0.1015 0.9939 0.0438
vn -0.1092 0.9907 0.0815
vn -0.1185 0.9908 0.0659
vn -0.1169 0.9855 0.1226
vn -0.2019 0.9275 0.3146
vn -0.4206 0.8001 0.4276
vn -0.5377 0.8318 0.1378
vn -0.3882 0.8946 -0.2212
vn -0.4150 0.8382 0.3539
vn -0.7689 0.6055 -0.2050
vn -0.5766 0.5526 -0.6018
vn -0.2229 0.9535 -0.2027
vn -0.1404 0.9877 0.0693
vn -0.1818 0.9755 0.1235
vn -0.2210 0.9750 0.0218
vn -0.1436 0.9853 0.0928
vn -0.0902 0.8612 0.5002
vn -0.2033 0.6088 0.7668
vn -0.3514 0.8860 0.3026
vn -0.1915 0.9184 -0.3462
vn 0.0188 0.8886 0.4583
vn 0.0470 0.8992 -0.4350
vn 0.0147 0.4313 -0.9021
vn -0.0037 0.9677 -0.2519
vn -0.0171 0.9926 0.1200
vn -0.0348 0.9828 0.1816
vn -0.0487 0.9960 -0.0751
vn 0.0205 0.9960 -0.0865
vn 0.1600 0.8819 0.4434
vn 0.3524 0.5964 0.7212
vn 0.5221 0.8125 0.2593
vn 0.2973 0.8885 -0.3496
vn 0.4006 0.8555 0.3279
vn 0.6985 0.7030 -0.1339
vn 0.5628 0.6706 -0.4833
vn 0.2386 0.9621 -0.1324
vn 0.1743 0.9767 0.1249
vn 0.2636 0.9495 0.1700
vn 0.3925 0.9149 -0.0947
vn 0.3027 0.9434 -0.1357
vn 0.3008 0.9333 0.1963
vn 0.4965 0.7942 0.3504
vn 0.6023 0.7924 0.0967
vn 0.4468 0.8672 -0.2199
vt 0.923077 0.923077
vt 1.000000 0.923077
vt 1.000000 1.000000
vt 0.923077 1.000000
vt 0.000000 0.923077
vt 0.076923 0.923077
vt 0.076923 1.000000
vt 0.000000 1.000000
vt 0.153846 0.923077
vt 0.153846 1.000000
vt 0.230769 0.923077
vt 0.230769 1.000000
vt 0.307692 0.923077
vt 0.307692 1.000000
vt 0.384615 0.923077
vt 0.384615 1.000000
vt 0.461538 0.923077
vt 0.461538 1.000000
vt 0.538462 0.923077
vt 0.538462 1.000000
vt 0.615385 0.923077
vt 0.615385 1.000000
vt 0.692308 0.923077
vt 0.692308 1.000000
vt 0.769231 0.923077
vt 0.769231 1.000000
vt 0.846154 0.923077
vt 0.846154 1.000000
vt 0.000000 0.000000
vt 0.076923 0.000000
vt 0.076923 0.076923
vt 0.000000 0.076923
vt 0.076923 0.153846
vt 0.000000 0.153846
vt 0.076923 0.230769
vt 0.000000 0.230769
vt 0.076923 0.307692
vt 0.000000 0.307692
vt 0.076923 0.384615
vt 0.000000 0.384615
vt 0.076923 0.461538
vt 0.000000 0.461538
vt 0.076923 0.538462
vt 0.000000 0.538462
vt 0.076923 0.615385
vt 0.000000 0.615385
vt 0.076923 0.692308
vt 0.000000 0.692308
vt 0.076923 0.769231
vt 0.000000 0.769231
vt 0.076923 0.846154
vt 0.000000 0.846154
vt 0.153846 0.000000
vt 0.153846 0.076923
vt 0.153846 0.153846
vt 0.153846 0.230769
vt 0.153846 0.307692
vt 0.153846 0.384615
vt 0.153846 0.461538
vt 0.153846 0.538462
vt 0.153846 0.615385
vt 0.153846 0.692308
vt 0.153846 0.769231
vt 0.153846 0.846154
vt 0.230769 0.000000
vt 0.230769 0.076923
vt 0.230769 0.153846
vt 0.230769 0.230769
vt 0.230769 0.307692
vt 0.230769 0.384615
vt 0.230769 0.461538
vt 0.230769 0.538462
vt 0.230769 0.615385
vt 0.230769 0.692308
vt 0.230769 0.769231
vt 0.230769 0.846154
vt 0.307692 0.000000
vt 0.307692 0.076923
vt 0.307692 0.153846
vt 0.307692 0.230769
vt 0.307692 0.307692
vt 0.307692 0.384615
vt 0.307692 0.461538
vt 0.307692 0.538462
vt 0.307692 0.615385
vt 0.307692 0.692308
vt 0.307692 0.769231
vt 0.307692 0.846154
vt 0.384615 0.000000
vt 0.384615 0.076923
vt 0.384615 0.153846
vt 0.384615 0.230769
vt 0.384615 0.307692
vt 0.384615 0.384615
vt 0.384615 0.461538
vt 0.384615 0.538462
vt 0.384615 0.615385
vt 0.384615 0.692308
vt 0.384615 0.769231
vt 0.384615 0.846154
vt 0.461538 0.000000
vt 0.461538 0.076923
vt 0.461538 0.153846
vt 0.461538 0.230769
vt 0.461538 0.307692
vt 0.461538 0.384615
vt 0.461538 0.461538
vt 0.461538 0.538462
vt 0.461538 0.615385
vt 0.461538 0.692308
vt 0.461538 0.769231
vt 0.461538 0.846154
vt 0.538462 0.000000
vt 0.538462 0.076923
vt 0.538462 0.153846
vt 0.538462 0.230769
vt 0.538462 0.307692
vt 0.538462 0.384615
vt 0.538462 0.461538
vt 0.538462 0.538462
vt 0.538462 0.615385
vt 0.538462 0.692308
vt 0.538462 0.769231
vt 0.538462 0.846154
vt 0.615385 0.000000
vt 0.615385 0.076923
vt 0.615385 0.153846
vt 0.615385 0.230769
vt 0.615385 0.307692
vt 0.615385 0.384615
vt 0.615385 0.461538
vt 0.615385 0.538462
vt 0.615385 0.615385
vt 0.615385 0.692308
vt 0.615385 0.769231
vt 0.615385 0.846154
vt 0.692308 0.000000
vt 0.692308 0.076923
vt 0.692308 0.153846
vt 0.692308 0.230769
vt 0.692308 0.307692
vt 0.692308 0.384615
vt 0.692308 0.461538
vt 0.692308 0.538462
vt 0.692308 0.615385
vt 0.692308 0.692308
vt 0.692308 0.769231
vt 0.692308 0.846154
vt 0.769231 0.000000
vt 0.769231 0.076923
vt 0.769231 0.153846
vt 0.769231 0.230769
vt 0.769231 0.307692
vt 0.769231 0.384615
vt 0.769231 0.461538
vt 0.769231 0.538462
vt 0.769231 0.615385
vt 0.769231 0.692308
vt 0.769231 0.769231
vt 0.769231 0.846154
vt 0.846154 0.000000
vt 0.846154 0.076923
vt 0.846154 0.153846
vt 0.846154 0.230769
vt 0.846154 0.307692
vt 0.846154 0.384615
vt 0.846154 0.461538
vt 0.846154 0.538462
vt 0.846154 0.615385
vt 0.846154 0.692308
vt 0.846154 0.769231
vt 0.846154 0.846154
vt 0.923077 0.000000
vt 0.923077 0.076923
vt 0.923077 0.153846
vt 0.923077 0.230769
vt 0.923077 0.307692
vt 0.923077 0.384615
vt 0.923077 0.461538
vt 0.923077 0.538462
vt 0.923077 0.615385
vt 0.923077 0.692308
vt 0.923077 0.769231
vt 0.923077 0.846154
vt 1.000000 0.000000
vt 1.000000 0.076923
vt 1.000000 0.153846
vt 1.000000 0.230769
vt 1.000000 0.307692
vt 1.000000 0.384615
vt 1.000000 0.461538
vt 1.000000 0.538462
vt 1.000000 0.615385
vt 1.000000 0.692308
vt 1.000000 0.769231
vt 1.000000 0.846154
s 0
f 196/1/1 40/2/1 4/3/1 41/4/1
f 5/5/2 64/6/2 52/7/2 3/8/2
f 64/6/3 76/9/3 51/10/3 52/7/3
f 76/9/4 88/11/4 50/12/4 51/10/4
f 88/11/5 100/13/5 49/14/5 50/12/5
f 100/13/6 112/15/6 48/16/6 49/14/6
f 112/15/7 124/17/7 47/18/7 48/16/7
f 124/17/8 136/19/8 46/20/8 47/18/8
f 136/19/9 148/21/9 45/22/9 46/20/9
f 148/21/10 160/23/10 44/24/10 45/22/10
f 160/23/11 172/25/11 43/26/11 44/24/11
f 172/25/12 184/27/12 42/28/12 43/26/12
f 184/27/13 196/1/13 41/4/13 42/28/13
f 1/29/14 17/30/14 53/31/14 16/32/14
f 16/32/15 53/31/15 54/33/15 15/34/15
f 15/34/16 54/33/16 55/35/16 14/36/16
f 14/36/17 55/35/17 56/37/17 13/38/17
f 13/38/18 56/37/18 57/39/18 12/40/18
f 12/40/19 57/39/19 58/41/19 11/42/19
f 11/42/20 58/41/20 59/43/20 10/44/20
f 10/44/21 59/43/21 60/45/21 9/46/21
f 9/46/22 60/45/22 61/47/22 8/48/22
f 8/48/23 61/47/23 62/49/23 7/50/23
f 7/50/24 62/49/24 63/51/24 6/52/24
f 6/52/25 63/51/25 64/6/25 5/5/25
f 17/30/26 18/53/26 65/54/26 53/31/26
f 53/31/27 65/54/27 66/55/27 54/33/27
f 54/33/28 66/55/28 67/56/28 55/35/28
f 55/35/29 67/56/29 68/57/29 56/37/29
f 56/37/30 68/57/30 69/58/30 57/39/30
f 57/39/31 69/58/31 70/59/31 58/41/31
f 58/41/32 70/59/32 71/60/32 59/43/32
f 59/43/33 71/60/33 72/61/33 60/45/33
f 60/45/34 72/61/34 73/62/34 61/47/34
f 61/47/35 73/62/35 74/63/35 62/49/35
f 62/49/36 74/63/36 75/64/36 63/51/36
f 63/51/37 75/64/37 76/9/37 64/6/37
f 18/53/38 19/65/38 77/66/38 65/54/38
f 65/54/39 77/66/39 78/67/39 66/55/39
f 66/55/40 78/67/40 79/68/40 67/56/40
f 67/56/41 79/68/41 80/69/41 68/57/41
f 68/57/42 80/69/42 81/70/42 69/58/42
f 69/58/43 81/70/43 82/71/43 70/59/43
f 70/59/44 82/71/44 83/72/44 71/60/44
f 71/60/45 83/72/45 84/73/45 72/61/45
f 72/61/46 84/73/46 85/74/46 73/62/46
f 73/62/47 85/74/47 86/75/47 74/63/47
f 74/63/48 86/75/48 87/76/48 75/64/48
f 75/64/49 87/76/49 88/11/49 76/9/49
f 19/65/50 20/77/50 89/78/50 77/66/50
f 77/66/51 89/78/51 90/79/51 78/67/51
f 78/67/52 90/79/52 91/80/52 79/68/52
f 79/68/53 91/80/53 92/81/53 80/69/53
f 80/69/54 92/81/54 93/82/54 81/70/54
f 81/70/55 93/82/55 94/83/55 82/71/55
f 82/71/56 94/83/56 95/84/56 83/72/56
f 83/72/57 95/84/57 96/85/57 84/73/57
f 84/73/58 96/85/58 97/86/58 85/74/58
f 85/74/59 97/86/59 98/87/59 86/75/59
f 86/75/60 98/87/60 99/88/60 87/76/60
f 87/76/61 99/88/61 100/13/61 88/11/61
f 20/77/62 21/89/62 101/90/62 89/78/62
f 89/78/63 101/90/63 102/91/63 90/79/63
f 90/79/64 102/91/64 103/92/64 91/80/64
f 91/80/65 103/92/65 104/93/65 92/81/65
f 92/81/66 104/93/66 105/94/66 93/82/66
f 93/82/67 105/94/67 106/95/67 94/83/67
f 94/83/68 106/95/68 107/96/68 95/84/68
f 95/84/69 107/96/69 108/97/69 96/85/69
f 96/85/70 108/97/70 109/98/70 97/86/70
f 97/86/71 109/98/71 110/99/71 98/87/71
f 98/87/72 110/99/72 111/100/72 99/88/72
f 99/88/73 111/100/73 112/15/73 100/13/73
f 21/89/74 22/101/74 113/102/74 101/90/74
f 101/90/75 113/102/75 114/103/75 102/91/75
f 102/91/76 114/103/76 115/104/76 103/92/76
f 103/92/77 115/104/77 116/105/77 104/93/77
f 104/93/78 116/105/78 117/106/78 105/94/78
f 105/94/79 117/106/79 118/107/79 106/95/79
f 106/95/80 118/107/80 119/108/80 107/96/80
f 107/96/81 119/108/81 120/109/81 108/97/81
f 108/97/82 120/109/82 121/110/82 109/98/82
f 109/98/83 121/110/83 122/111/83 110/99/83
f 110/99/84 122/111/84 123/112/84 111/100/84
f 111/100/85 123/112/85 124/17/85 112/15/85
f 22/101/86 23/113/86 125/114/86 113/102/86
f 113/102/87 125/114/87 126/115/87 114/103/87
f 114/103/88 126/115/88 127/116/88 115/104/88
f 115/104/89 127/116/89 128/117/89 116/105/89
f 116/105/90 128/117/90 129/118/90 117/106/90
f 117/106/91 129/118/91 130/119/91 118/107/91
f 118/107/92 130/119/92 131/120/92 119/108/92
f 119/108/93 131/120/93 132/121/93 120/109/93
f 120/109/94 132/121/94 133/122/94 121/110/94
f 121/110/95 133/122/95 134/123/95 122/111/95
f 122/111/96 134/123/96 135/124/96 123/112/96
f 123/112/97 135/124/97 136/19/97 124/17/97
f 23/113/98 24/125/98 137/126/98 125/114/98
f 125/114/99 137/126/99 138/127/99 126/115/99
f 126/115/100 138/127/100 139/128/100 127/116/100
f 127/116/101 139/128/101 140/129/101 128/117/101
f 128/117/102 140/129/102 141/130/102 129/118/102
f 129/118/103 141/130/103 142/131/103 130/119/103
f 130/119/104 142/131/104 143/132/104 131/120/104
f 131/120/105 143/132/105 144/133/105 132/121/105
f 132/121/106 144/133/106 145/134/106 133/122/106
f 133/122/107 145/134/107 146/135/107 134/123/107
f 134/123/108 146/135/108 147/136/108 135/124/108
f 135/124/109 147/136/109 148/21/109 136/19/109
f 24/125/110 25/137/110 149/138/110 137/126/110
f 137/126/111 149/138/111 150/139/111 138/127/111
f 138/127/112 150/139/112 151/140/112 139/128/112
f 139/128/113 151/140/113 152/141/113 140/129/113
f 140/129/114 152/141/114 153/142/114 141/130/114
f 141/130/115 153/142/115 154/143/115 142/131/115
f 142/131/116 154/143/116 155/144/116 143/132/116
f 143/132/117 155/144/117 156/145/117 144/133/117
f 144/133/118 156/145/118 157/146/118 145/134/118
f 145/134/119 157/146/119 158/147/119 146/135/119
f 146/135/120 158/147/120 159/148/120 147/136/120
f 147/136/121 159/148/121 160/23/121 148/21/121
f 25/137/122 26/149/122 161/150/122 149/138/122
f 149/138/123 161/150/123 162/151/123 150/139/123
f 150/139/124 162/151/124 163/152/124 151/140/124
f 151/140/125 163/152/125 164/153/125 152/141/125
f 152/141/126 164/153/126 165/154/126 153/142/126
f 153/142/127 165/154/127 166/155/127 154/143/127
f 154/143/128 166/155/128 167/156/128 155/144/128
f 155/144/129 167/156/129 168/157/129 156/145/129
f 156/145/130 168/157/130 169/158/130 157/146/130
f 157/146/131 169/158/131 170/159/131 158/147/131
f 158/147/132 170/159/132 171/160/132 159/148/132
f 159/148/133 171/160/133 172/25/133 160/23/133
f 26/149/134 27/161/134 173/162/134 161/150/134
f 161/150/135 173/162/135 174/163/135 162/151/135
f 162/151/136 174/163/136 175/164/136 163/152/136
f 163/152/137 175/164/137 176/165/137 164/153/137
f 164/153/138 176/165/138 177/166/138 165/154/138
f 165/154/139 177/166/139 178/167/139 166/155/139
f 166/155/140 178/167/140 179/168/140 167/156/140
f 167/156/141 179/168/141 180/169/141 168/157/141
f 168/157/142 180/169/142 181/170/142 169/158/142
f 169/158/143 181/170/143 182/171/143 170/159/143
f 170/159/144 182/171/144 183/172/144 171/160/144
f 171/160/145 183/172/145 184/27/145 172/25/145
f 27/161/146 28/173/146 185/174/146 173/162/146
f 173/162/147 185/174/147 186/175/147 174/163/147
f 174/163/148 186/175/148 187/176/148 175/164/148
f 175/164/149 187/176/149 188/177/149 176/165/149
f 176/165/150 188/177/150 189/178/150 177/166/150
f 177/166/151 189/178/151 190/179/151 178/167/151
f 178/167/152 190/179/152 191/180/152 179/168/152
f 179/168/153 191/180/153 192/181/153 180/169/153
f 180/169/154 192/181/154 193/182/154 181/170/154
f 181/170/155 193/182/155 194/183/155 182/171/155
f 182/171/156 194/183/156 195/184/156 183/172/156
f 183/172/157 195/184/157 196/1/157 184/27/157
f 28/173/158 2/185/158 29/186/158 185/174/158
f 185/174/159 29/186/159 30/187/159 186/175/159
f 186/175/160 30/187/160 31/188/160 187/176/160
f 187/176/161 31/188/161 32/189/161 188/177/161
f 188/177/162 32/189/162 33/190/162 189/178/162
f 189/178/163 33/190/163 34/191/163 190/179/163
f 190/179/164 34/191/164 35/192/164 191/180/164
f 191/180/165 35/192/165 36/193/165 192/181/165
f 192/181/166 36/193/166 37/194/166 193/182/166
f 193/182/167 37/194/167 38/195/167 194/183/167
f 194/183/168 38/195/168 39/196/168 195/184/168
f 195/184/169 39/196/169 40/2/169 196/1/169
